PathFileType        4      (X/Y/Z)      C:\Users\pc\Desktop\IMUTRC\Sujet_08\Sujet_08_velo_100.trc         
DataRate	CameraRate	NumFrames	NumMarkers	Units	OrigDataRate	OrigDataStartFrame	OrigNumFrames
60.0	60.0	4	64	mm	60.0	467	932
Frame#	Time	pHipOrigin			pRightASI			pLeftASI			pRightCSI			pLeftCSI			pRightIschialTub			pLeftIschialTub			pSacrum			pL5SpinalProcess			pL3SpinalProcess			pT12SpinalProcess			pIJ			pT4SpinalProcess			pT8SpinalProcess			pPX			pC7SpinalProcess			pTopOfHead			pRightAuricularis			pLeftAuricularis			pBackOfHead			pRightAcromion			pLeftAcromion			pRightArmLatEpicondyle			pRightArmMedEpicondyle			pLeftArmLatEpicondyle			pLeftArmMedEpicondyle			pRightUlnarStyloid			pRightRadialStyloid			pRightOlecranon			pLeftUlnarStyloid			pLeftRadialStyloid			pLeftOlecranon			pRightTopOfHand			pRightPinky			pRightBallHand			pLeftTopOfHand			pLeftPinky			pLeftBallHand			pRightGreaterTrochanter			pRightKneeLatEpicondyle			pRightKneeMedEpicondyle			pRightPatella			pLeftGreaterTrochanter			pLeftKneeLatEpicondyle			pLeftKneeMedEpicondyle			pLeftPatella			pRightTibialTub			pRightLatMalleolus			pRightMedMalleolus			pLeftTibialTub			pLeftLatMalleolus			pLeftMedMalleolus			pRightHeelFoot			pRightFirstMetatarsal			pRightFifthMetatarsal			pRightPivotFoot			pRightHeelCenter			pRightToe			pLeftHeelFoot			pLeftFirstMetatarsal			pLeftFifthMetatarsal			pLeftPivotFoot			pLeftHeelCenter			pLeftToe			
		X1	Y1	Z1	X2	Y2	Z2	X3	Y3	Z3	X4	Y4	Z4	X5	Y5	Z5	X6	Y6	Z6	X7	Y7	Z7	X8	Y8	Z8	X9	Y9	Z9	X10	Y10	Z10	X11	Y11	Z11	X12	Y12	Z12	X13	Y13	Z13	X14	Y14	Z14	X15	Y15	Z15	X16	Y16	Z16	X17	Y17	Z17	X18	Y18	Z18	X19	Y19	Z19	X20	Y20	Z20	X21	Y21	Z21	X22	Y22	Z22	X23	Y23	Z23	X24	Y24	Z24	X25	Y25	Z25	X26	Y26	Z26	X27	Y27	Z27	X28	Y28	Z28	X29	Y29	Z29	X30	Y30	Z30	X31	Y31	Z31	X32	Y32	Z32	X33	Y33	Z33	X34	Y34	Z34	X35	Y35	Z35	X36	Y36	Z36	X37	Y37	Z37	X38	Y38	Z38	X39	Y39	Z39	X40	Y40	Z40	X41	Y41	Z41	X42	Y42	Z42	X43	Y43	Z43	X44	Y44	Z44	X45	Y45	Z45	X46	Y46	Z46	X47	Y47	Z47	X48	Y48	Z48	X49	Y49	Z49	X50	Y50	Z50	X51	Y51	Z51	X52	Y52	Z52	X53	Y53	Z53	X54	Y54	Z54	X55	Y55	Z55	X56	Y56	Z56	X57	Y57	Z57	X58	Y58	Z58	X59	Y59	Z59	X60	Y60	Z60	X61	Y61	Z61	X62	Y62	Z62	X63	Y63	Z63	X64	Y64	Z64	
467	7.767	0.0	1249.97582	7.653894434872941E-14	102.46104771803756	1310.56798	130.26959838302318	82.6851476773311	1332.058	-132.475605664237	80.23242280440293	1387.80278	114.7814569554231	64.16790755859726	1405.57648	-101.60957994147745	-65.02815007027917	1210.06579	56.38225202461197	-73.12230025396379	1218.95264	-51.86520044876293	-55.09691425034323	1290.04743	7.34353762167292	10.748661994665843	1371.32171	8.808270605563134	81.09152786625356	1462.45232	7.9298132341325855	145.70790324556992	1545.82713	5.832004761326426	393.60974598773623	1576.68873	-17.118187260553373	286.2756335157676	1672.50513	-3.8281980206785815	218.04832534428442	1620.9614	1.5674571560321906	303.15788148348634	1502.36235	-10.122193396539267	332.4419920287586	1705.62885	-7.064402898569265	581.7938160419287	1746.50836	-48.835944170131945	506.4164009844071	1713.22306	33.45419201852615	479.8653764891844	1719.68623	-98.29561763884602	477.2851540258917	1766.54416	-26.847328362684728	351.64007944955273	1641.48195	145.51416323249794	312.7260952553047	1651.33827	-165.5615570133956	458.7549179338606	1378.59277	148.07059583752346	434.0753605959349	1367.44382	92.77003977985407	402.85822610871537	1384.73278	-206.3631493146497	402.58864472824337	1376.33067	-145.2097438567441	558.8714291966787	1148.50415	140.11436419853092	601.6347816162089	1171.12523	121.57804160835228	424.52978391166346	1364.85855	131.79696811094865	524.541672730941	1160.62258	-186.7308917768398	568.4941856878044	1187.76787	-183.80951983378748	379.18219371047803	1369.8675	-179.40402192539403	732.4569575312944	1075.47041	222.0701141531477	644.5138085791173	1076.76304	190.8841996571049	602.4084956656495	1120.71255	143.5308459860599	671.9652658414341	1071.43093	-296.31253775983583	597.0932200323964	1079.67146	-241.01879204763188	567.0829521728845	1133.4773	-194.69630779064457	19.488264118237637	1212.97421	158.51706229352803	253.16563286090587	893.37077	132.9118864003406	261.2860371688756	897.89499	56.6206669415306	290.4217687758254	923.10133	97.30979086388595	24.576682973529536	1246.58266	-158.2434071368801	387.276954523476	1088.88147	-126.20787603592892	386.66431526634796	1088.07357	-49.31190269465167	401.348759497964	1129.11466	-84.65959229153133	287.6815477819837	848.45179	100.07271136591075	49.7017641453855	551.30785	131.55942723360224	56.15312061218959	545.97574	71.58553353833574	428.97687293555947	1053.01091	-87.42080415371431	296.4042771828824	699.96061	-147.61821482358187	295.5997555122101	695.11323	-87.33551993143301	-33.50083800510657	533.21099	99.50000564701348	56.464900039855905	411.38036	52.86377114482738	56.08847237875076	404.91719	127.21588932167325	68.44963566631603	391.02139	87.59855684175169	-9.618776914444204	504.61149	97.18121454670475	114.18919793732292	325.74344	82.10589106040437	235.65604472054144	633.5516	-120.97106785161547	379.509667739115	586.04735	-74.7206096659216	384.458778812892	585.40103	-149.2434043100271	401.9096002655192	579.09945	-109.7111003025723	271.76929192149765	624.50317	-118.51075649076533	477.36285299281946	553.56995	-104.61401226971881	
468	7.783	0.0	1249.97582	7.653894434872941E-14	101.34278223004253	1311.69903	130.59681542927723	83.2641968767588	1331.73484	-132.41156806011145	79.07431154979534	1388.77226	114.65339706806085	64.02421425833208	1405.25332	-101.94108064654291	-65.27570499251749	1210.06579	56.17452878066567	-72.68693792692518	1218.30632	-52.13267121014728	-55.36438501172758	1289.72428	6.908175294634309	10.129782349514453	1371.32171	8.288968923573476	80.26491731671143	1462.77548	7.658060046505168	144.34206874701601	1546.31187	5.951499796202508	392.25955132996137	1578.30453	-15.509087926448661	284.5341970633653	1673.63619	-2.7583302960300498	216.49469110137468	1621.7693	2.1621526241150093	302.20321104658194	1503.65499	-9.235835329559073	330.61660979352916	1707.08306	-5.643118629709258	580.1320365182345	1748.28573	-46.855512452669764	504.6308439995936	1714.67728	35.33076211401515	478.1836875542201	1721.62518	-96.54283266492051	475.39574184698114	1768.32153	-24.846988466520976	349.567142292085	1642.77458	146.7277242574116	311.43993054121097	1653.4388	-164.53151330659472	457.7604158186642	1380.37014	148.50167573831902	433.0609426415924	1369.22119	92.97348059755731	402.52673183152604	1386.99489	-206.21946367482894	401.9057274789664	1378.26962	-145.149996339306	558.3763270126466	1150.4431	139.69892413851446	601.015894310613	1173.22575	121.05873349848649	423.5352894569116	1366.47434	132.2280544396203	524.0266470473182	1162.88469	-187.3739773478247	567.9791600041817	1190.02998	-184.4526054047724	378.72691554429343	1371.96803	-179.36419024710196	732.3374701568627	1077.40935	220.7042860824699	644.3103613335379	1078.70199	189.86978936320685	601.8934776424713	1122.81308	142.88776684295107	671.1628612177255	1074.17777	-297.6186183130755	596.5383703309262	1082.09515	-242.11714935692535	566.5480183105601	1135.73941	-195.56702601684566	21.908334161105444	1215.07474	158.64940583970167	271.89167248534955	907.91289	131.9617147001911	278.15115419905374	912.11395	55.37454898367237	306.64808266126164	939.25923	95.31672571306963	22.83952375206259	1241.57371	-158.43549054004737	375.8196846848141	1062.70566	-127.38459770165495	376.69664206647025	1064.80619	-50.50427062903284	393.16664451546814	1103.58517	-87.72851623308101	301.9786113823412	861.70127	99.62471560551802	45.20447451880686	580.87682	133.902617588923	51.3243238526694	574.41366	74.07242485436612	420.89434234410146	1030.06668	-89.35155442856737	305.0061158842062	670.55321	-146.3063518543247	305.0082812634855	666.19058	-85.97954928551671	-38.641205542225684	566.49628	102.358228113833	44.9350406003345	440.78775	54.79002911080166	44.786244361877245	434.00143	129.12222502062542	56.216935477927244	419.78247	89.35691681419559	-16.26867225038241	536.92731	99.8274313433349	98.70982481696863	352.56557	83.46016072692329	246.24259756557052	603.17473	-119.25939823524467	391.25431775043114	559.22522	-72.88087892962017	395.97578974111576	558.25575	-147.38375773457966	413.77802773795446	552.60048	-107.76750794429773	282.58348384961903	594.9342	-116.81900271354051	489.70648089846145	528.68677	-102.48262016708838	
469	7.8	0.0	1249.97582	7.653894434872941E-14	100.01677940978065	1312.50693	131.17158863033794	84.09080742630093	1331.41168	-132.13981487248404	77.5847072505667	1389.58015	114.66903690883987	64.4595701574946	1405.09174	-102.20854374748282	-65.54317575390183	1210.06579	55.739166453627035	-72.1477204057895	1217.82158	-52.523911772206354	-55.547902329840355	1289.5627	6.121402851260304	9.75844996615696	1371.48329	7.977384057654024	79.45823026675976	1463.09864	7.61395236984615	143.34758072014014	1546.95818	6.3825784644297086	391.2806890555439	1579.59716	-13.588403726424492	283.2878640275636	1674.60566	-1.2730084230445127	215.31238800925408	1622.5772	3.0684188697967727	301.39224033781886	1504.78604	-8.01798421795791	329.1824693529271	1708.21411	-3.6826027513930715	578.6338725618275	1749.90152	-44.31594860749414	503.2166258260137	1715.96991	37.51890941497924	476.78937879191017	1723.40255	-94.1270386204197	474.0213489238172	1769.77574	-22.203555338927803	347.5340380454776	1643.90563	148.39657753683045	310.5450140496207	1655.21617	-162.962245650782	456.66205850937075	1381.66278	149.05652543978925	432.0863627934182	1370.6754	93.6321919210007	402.1112853436334	1388.77226	-205.7243538303523	401.49028741894995	1379.72383	-144.6548941552738	557.7574397070507	1151.89731	139.17961602864867	600.3970070050173	1174.84154	120.53942538862081	422.54079376959123	1367.76697	132.65912667997137	523.5116290241399	1164.50048	-188.0170564909335	567.4840578201495	1191.64577	-184.86804546478896	378.3114690564008	1373.58382	-178.86908040262531	732.2378845332565	1079.02515	219.56609832745286	644.0030665543061	1080.1562	188.9791552978598	601.3784519588487	1124.42887	142.2446812719661	670.6079974279347	1076.2783	-298.71697438980067	596.0034223802813	1083.87252	-242.9878663505581	566.0329926269375	1137.3552	-196.21011158783062	23.749348576669448	1217.17527	158.7177194421942	290.42991879331345	924.55554	131.4867357728039	295.4075041308465	928.27186	54.66764211907369	322.9341364036915	957.51767	94.00657138365416	20.770870253406244	1236.56476	-158.4838883033939	361.15556469946597	1034.91405	-128.51015202331803	364.205044862196	1039.59985	-51.705198220592386	382.25287339161673	1075.63198	-90.55846542576744	316.54315217195926	877.37444	99.61207451171946	44.76054610671374	611.41527	136.6940200151483	50.65276278536005	603.98263	76.883735459293	409.37732498800153	1005.34508	-91.21119334357039	308.26842865695073	640.82266	-144.4126572491711	309.07728231875006	636.78318	-84.04173291538358	-39.72821309742763	598.97368	105.66464856323655	39.75483372447892	470.84146	57.19296698356045	39.378398402929356	463.73198	131.54507873253024	50.457680635212306	449.35144	91.69583117114936	-18.40992177777435	568.59681	102.88202087213313	90.71830733618617	380.84191	85.19153753237275	250.70283918289414	572.79786	-116.78236434397583	396.35764493873967	530.7873	-70.918870721974	400.85148427420813	529.65625	-145.40184134823195	418.881354926263	524.32414	-105.80549973665154	287.14758708891577	565.04207	-114.46574628339086	495.12139295268946	501.54149	-100.89194434279969	
470	7.817	0.0	1249.97582	7.653894434872941E-14	98.37919815147544	1313.15324	132.1176865543117	85.53629762099445	1330.92694	-131.34876000286695	76.01115593594261	1390.06489	115.03607920550986	65.51381979012905	1404.76859	-101.95670639900142	-66.28583286017239	1210.22736	55.11600314966423	-71.42068905197743	1217.49842	-53.3903540000405	-55.731427308397556	1289.5627	5.334623980010208	9.387117582799466	1371.48329	7.66579919173457	79.1466518287164	1463.26022	7.985277092759216	142.8481884494204	1547.11976	7.229104853117842	390.8367606434508	1580.40505	-10.79700130019923	282.5565490149401	1675.0904	0.8553925930498454	214.64510294031172	1622.90035	4.617764258587329	300.99242603026084	1505.27078	-6.033276502128693	328.3672085574765	1708.69885	-1.2027851910872676	577.8783592838149	1751.03257	-41.15321379791141	502.4611125480011	1716.7778	40.681644224562085	476.13773356374685	1724.5336	-91.08808893240054	473.2658420736807	1770.58364	-19.04082818978947	345.8082350059783	1644.22879	150.95605722115204	310.2689772031819	1656.18565	-160.87367631297968	455.375893795277	1381.98593	150.08656914659022	431.0079148953946	1371.48329	94.41468836600771	401.7555851406105	1389.58015	-204.5463408249192	401.0108109873762	1380.53172	-143.58072868349333	557.2822457017201	1152.70521	138.9918086238484	599.6941815770386	1175.81102	120.37154025084259	421.4822681385898	1368.25171	133.66925454762628	522.9325733968362	1165.30838	-188.08108643461466	567.1326412759379	1192.45366	-184.95199124761606	377.83199905270317	1374.39172	-177.79492259128932	732.118397158825	1079.83304	218.200270256775	643.7996257366028	1080.96409	187.96473734351733	600.8634339356705	1125.23676	141.60160212885734	669.8653403216642	1077.40935	-299.34013769376344	595.3845427351299	1084.84199	-243.50716803254775	565.6616679040244	1138.32467	-196.521690025874	24.67982074818474	1219.27579	158.86569516870247	308.5925490591085	943.46029	131.96213076775751	313.0109946084837	946.85345	55.30664625343847	338.884419870565	977.87664	94.10206791019579	18.474577671657613	1232.04054	-158.51237022759443	342.621616138634	1005.02192	-129.29713311675943	347.9275572048207	1011.96982	-52.91897555601786	367.7808521303248	1045.25512	-93.42116611314522	331.51884936278236	895.79446	100.36629002214889	48.781149398631754	642.11529	140.7004898839378	53.99044882800112	634.19792	80.94995284552053	393.3274623253979	978.36137	-92.44488528557355	304.7812604701509	609.96105	-141.01093360240444	306.7283159752879	606.56789	-80.73959612479145	-36.37060478776446	630.4816	109.95849737211198	41.087896212144784	501.54149	60.63173097913766	40.93909997368753	493.94727	134.96392688896142	51.54318820063983	479.56673	94.92687192278026	-15.403730012322661	599.78157	107.0919238981814	90.85343455139684	410.2493	88.04696990227917	248.06220381265854	541.93626	-112.88125608693392	394.1566478939097	500.41043	-68.54719844245275	398.0714392625187	499.44096	-143.0941925845157	416.43280295919465	494.10885	-103.64155070107662	284.4671200403882	534.34204	-111.01991619253356	492.71695632272457	471.48778	-99.53467592930028	
